<?xml version="1.0" encoding="UTF-8"?>
<!DOCTYPE svg PUBLIC "-//W3C//DTD SVG 1.1//EN" "http://www.w3.org/Graphics/SVG/1.1/DTD/svg11.dtd">
<svg width="248mm" height="90mm" viewBox="0 0 24800 9000" version="1.1" xmlns="http://www.w3.org/2000/svg" stroke-width="28.222" stroke-linejoin="round" xml:space="preserve">
 <path fill="rgb(255,255,255)" stroke="none" d="M 12377,9005 L 0,9005 0,0 24753,0 24753,9005 12377,9005 Z"/>
 <path fill="none" stroke="rgb(179,179,179)" stroke-linejoin="round" d="M 13172,7197 L 2418,7197 2418,379 23926,379 23926,7197 13172,7197 Z"/>
 <path fill="none" stroke="rgb(179,179,179)" stroke-linejoin="round" d="M 23926,7196 L 2418,7196"/>
 <path fill="none" stroke="rgb(179,179,179)" stroke-linejoin="round" d="M 23926,6514 L 2418,6514"/>
 <path fill="none" stroke="rgb(179,179,179)" stroke-linejoin="round" d="M 23926,5832 L 2418,5832"/>
 <path fill="none" stroke="rgb(179,179,179)" stroke-linejoin="round" d="M 23926,5150 L 2418,5150"/>
 <path fill="none" stroke="rgb(179,179,179)" stroke-linejoin="round" d="M 23926,4469 L 2418,4469"/>
 <path fill="none" stroke="rgb(179,179,179)" stroke-linejoin="round" d="M 23926,3787 L 2418,3787"/>
 <path fill="none" stroke="rgb(179,179,179)" stroke-linejoin="round" d="M 23926,3105 L 2418,3105"/>
 <path fill="none" stroke="rgb(179,179,179)" stroke-linejoin="round" d="M 23926,2423 L 2418,2423"/>
 <path fill="none" stroke="rgb(179,179,179)" stroke-linejoin="round" d="M 23926,1741 L 2418,1741"/>
 <path fill="none" stroke="rgb(179,179,179)" stroke-linejoin="round" d="M 23926,1059 L 2418,1059"/>
 <path fill="none" stroke="rgb(179,179,179)" stroke-linejoin="round" d="M 23926,378 L 2418,378"/>
 <path fill="none" stroke="rgb(179,179,179)" stroke-linejoin="round" d="M 2418,7346 L 2418,7196"/>
 <path fill="none" stroke="rgb(179,179,179)" stroke-linejoin="round" d="M 2418,7346 L 2418,7196"/>
 <path fill="none" stroke="rgb(179,179,179)" stroke-linejoin="round" d="M 4568,7346 L 4568,7196"/>
 <path fill="none" stroke="rgb(179,179,179)" stroke-linejoin="round" d="M 4568,7346 L 4568,7196"/>
 <path fill="none" stroke="rgb(179,179,179)" stroke-linejoin="round" d="M 6719,7346 L 6719,7196"/>
 <path fill="none" stroke="rgb(179,179,179)" stroke-linejoin="round" d="M 6719,7346 L 6719,7196"/>
 <path fill="none" stroke="rgb(179,179,179)" stroke-linejoin="round" d="M 8870,7346 L 8870,7196"/>
 <path fill="none" stroke="rgb(179,179,179)" stroke-linejoin="round" d="M 8870,7346 L 8870,7196"/>
 <path fill="none" stroke="rgb(179,179,179)" stroke-linejoin="round" d="M 11021,7346 L 11021,7196"/>
 <path fill="none" stroke="rgb(179,179,179)" stroke-linejoin="round" d="M 11021,7346 L 11021,7196"/>
 <path fill="none" stroke="rgb(179,179,179)" stroke-linejoin="round" d="M 13171,7346 L 13171,7196"/>
 <path fill="none" stroke="rgb(179,179,179)" stroke-linejoin="round" d="M 13171,7346 L 13171,7196"/>
 <path fill="none" stroke="rgb(179,179,179)" stroke-linejoin="round" d="M 15322,7346 L 15322,7196"/>
 <path fill="none" stroke="rgb(179,179,179)" stroke-linejoin="round" d="M 15322,7346 L 15322,7196"/>
 <path fill="none" stroke="rgb(179,179,179)" stroke-linejoin="round" d="M 17473,7346 L 17473,7196"/>
 <path fill="none" stroke="rgb(179,179,179)" stroke-linejoin="round" d="M 17473,7346 L 17473,7196"/>
 <path fill="none" stroke="rgb(179,179,179)" stroke-linejoin="round" d="M 19624,7346 L 19624,7196"/>
 <path fill="none" stroke="rgb(179,179,179)" stroke-linejoin="round" d="M 19624,7346 L 19624,7196"/>
 <path fill="none" stroke="rgb(179,179,179)" stroke-linejoin="round" d="M 21775,7346 L 21775,7196"/>
 <path fill="none" stroke="rgb(179,179,179)" stroke-linejoin="round" d="M 21775,7346 L 21775,7196"/>
 <path fill="none" stroke="rgb(179,179,179)" stroke-linejoin="round" d="M 23926,7346 L 23926,7196"/>
 <path fill="none" stroke="rgb(179,179,179)" stroke-linejoin="round" d="M 23926,7346 L 23926,7196"/>
 <path fill="none" stroke="rgb(179,179,179)" stroke-linejoin="round" d="M 2418,7196 L 23926,7196"/>
 <path fill="none" stroke="rgb(179,179,179)" stroke-linejoin="round" d="M 2268,7196 L 2418,7196"/>
 <path fill="none" stroke="rgb(179,179,179)" stroke-linejoin="round" d="M 2268,7196 L 2418,7196"/>
 <path fill="none" stroke="rgb(179,179,179)" stroke-linejoin="round" d="M 2268,6514 L 2418,6514"/>
 <path fill="none" stroke="rgb(179,179,179)" stroke-linejoin="round" d="M 2268,6514 L 2418,6514"/>
 <path fill="none" stroke="rgb(179,179,179)" stroke-linejoin="round" d="M 2268,5832 L 2418,5832"/>
 <path fill="none" stroke="rgb(179,179,179)" stroke-linejoin="round" d="M 2268,5832 L 2418,5832"/>
 <path fill="none" stroke="rgb(179,179,179)" stroke-linejoin="round" d="M 2268,5150 L 2418,5150"/>
 <path fill="none" stroke="rgb(179,179,179)" stroke-linejoin="round" d="M 2268,5150 L 2418,5150"/>
 <path fill="none" stroke="rgb(179,179,179)" stroke-linejoin="round" d="M 2268,4469 L 2418,4469"/>
 <path fill="none" stroke="rgb(179,179,179)" stroke-linejoin="round" d="M 2268,4469 L 2418,4469"/>
 <path fill="none" stroke="rgb(179,179,179)" stroke-linejoin="round" d="M 2268,3787 L 2418,3787"/>
 <path fill="none" stroke="rgb(179,179,179)" stroke-linejoin="round" d="M 2268,3787 L 2418,3787"/>
 <path fill="none" stroke="rgb(179,179,179)" stroke-linejoin="round" d="M 2268,3105 L 2418,3105"/>
 <path fill="none" stroke="rgb(179,179,179)" stroke-linejoin="round" d="M 2268,3105 L 2418,3105"/>
 <path fill="none" stroke="rgb(179,179,179)" stroke-linejoin="round" d="M 2268,2423 L 2418,2423"/>
 <path fill="none" stroke="rgb(179,179,179)" stroke-linejoin="round" d="M 2268,2423 L 2418,2423"/>
 <path fill="none" stroke="rgb(179,179,179)" stroke-linejoin="round" d="M 2268,1741 L 2418,1741"/>
 <path fill="none" stroke="rgb(179,179,179)" stroke-linejoin="round" d="M 2268,1741 L 2418,1741"/>
 <path fill="none" stroke="rgb(179,179,179)" stroke-linejoin="round" d="M 2268,1059 L 2418,1059"/>
 <path fill="none" stroke="rgb(179,179,179)" stroke-linejoin="round" d="M 2268,1059 L 2418,1059"/>
 <path fill="none" stroke="rgb(179,179,179)" stroke-linejoin="round" d="M 2268,378 L 2418,378"/>
 <path fill="none" stroke="rgb(179,179,179)" stroke-linejoin="round" d="M 2268,378 L 2418,378"/>
 <path fill="none" stroke="rgb(179,179,179)" stroke-linejoin="round" d="M 2418,7196 L 2418,378"/>
 <path fill="none" stroke="rgb(0,69,134)" stroke-width="80" stroke-linejoin="round" d="M 2418,7093 L 2488,7195 2559,6434 2630,7025 2701,6868 2772,7037 2843,7082 2914,6675 2985,5984 3056,6938 3127,6908 3198,6656 3269,6649 3340,6638 3411,5509 3482,3987 3553,6560 3624,4038 3695,6490 3766,6956 3837,6934 3908,7049 3979,6723 4050,6862 4120,6630 4191,6425 4262,6513 4333,6439 4404,6408 4475,7130 4546,6937 4617,6746 4688,6860 4759,7156 4830,6890 4901,6990 4972,6335 5043,7037 5114,6780 5185,6995 5256,6273 5327,6845 5398,6459 5469,7009 5540,5776 5611,6486 5682,6375 5753,7019 5823,6942 5894,7090 5965,7000 6036,6675 6107,6815 6178,6469 6249,6292 6320,6675 6391,6703 6462,6990 6533,5861 6604,6929 6675,7084 6746,6812 6817,6714 6888,6992 6959,6279 7030,7003 7101,6645 7172,7082 7243,6825 7314,6989 7385,7122 7455,6090 7526,6842 7597,3976 7668,6347 7739,6609 7810,6263 7881,6997 7952,5541 8023,6134 8094,6383 8165,6949 8236,6945 8307,7013 8378,6154 8449,6942 8520,7109 8591,6938 8662,5951 8733,6965 8804,6927 8875,7065 8946,6957 9017,6926 9088,5654 9158,7105 9229,6547 9300,6556 9371,6806 9442,6364 9513,6136 9584,6937 9655,6234 9726,6906 9797,6263 9868,7006 9939,6648 10010,6382 10081,5788 10152,7057 10223,6263 10294,6927 10365,5430 10436,7000 10507,5927 10578,7033 10649,4570 10720,7082 10790,1473 10861,6055 10932,4862 11003,6223 11074,7037 11145,6718 11216,4565 11287,6741 11358,5750 11429,5863 11500,6469 11571,6712 11642,5664 11713,5049 11784,6951 11855,6660 11926,6218 11997,5479 12068,5729 12139,6152 12210,5394 12281,7037 12352,4371 12422,7074 12492,4793 12563,6974 12634,4936 12705,7059 12776,5990 12847,7029 12918,5061 12989,7032 13060,6605 13131,6819 13194,378"/>
 <path fill="none" stroke="rgb(0,69,134)" stroke-width="80" stroke-linejoin="round" d="M 13210,378 L 13273,7096 13344,4291 13415,6692 13486,5398 13557,7041 13628,4150 13699,6704 13770,5999 13841,7094 13912,6635 13983,6901 14054,4581 14124,7079 14195,5567 14266,7109 14337,6597 14408,7085 14479,5436 14550,7130 14621,6370 14692,7008 14763,6031 14834,7102 14905,3349 14976,7133 15047,6528 15118,6979 15189,6220 15260,7062 15331,6244 15402,6995 15473,7060 15544,7003 15615,7025 15686,7073 15757,5321 15827,7049 15898,5362 15969,7052 16040,6435 16111,6899 16182,7053 16253,6849 16324,5258 16395,7071 16466,4864 16537,7022 16608,5753 16679,7048 16750,6800 16821,7014 16892,6362 16963,7089 17034,6836 17105,7057 17176,6197 17247,7067 17318,6839 17389,6622 17459,6347 17530,6961 17601,7079 17672,6882 17743,6321 17814,7023 17885,7061 17956,5942 18027,6731 18098,6891 18169,6448 18240,6935 18311,6942 18382,6753 18453,5231 18524,6574 18595,6178 18666,6816 18737,6655 18808,6550 18879,6248 18950,6978 19021,6591 19092,6817 19162,5461 19233,6988 19304,5095 19375,6698 19446,5801 19517,7092 19588,6448 19659,7080 19730,7142 19801,7127 19872,5701 19943,7101 20014,4820 20085,7041 20156,2190 20227,6878 20298,7085 20369,6868 20440,4302 20511,6923 20572,378"/>
 <path fill="none" stroke="rgb(0,69,134)" stroke-width="80" stroke-linejoin="round" d="M 20591,378 L 20653,7092 20694,378"/>
 <path fill="none" stroke="rgb(0,69,134)" stroke-width="80" stroke-linejoin="round" d="M 20753,378 L 20794,7150 20797,378"/>
 <path fill="none" stroke="rgb(0,69,134)" stroke-width="80" stroke-linejoin="round" d="M 20934,378 L 20936,7030 20945,378"/>
 <path fill="none" stroke="rgb(0,69,134)" stroke-width="80" stroke-linejoin="round" d="M 21070,378 L 21078,7146 21079,378"/>
 <path fill="none" stroke="rgb(0,69,134)" stroke-width="80" stroke-linejoin="round" d="M 21219,378 L 21220,6850 21220,378"/>
 <path fill="none" stroke="rgb(0,69,134)" stroke-width="80" stroke-linejoin="round" d="M 21433,378 L 21433,3282 21433,378 Z"/>
 <path fill="none" stroke="rgb(0,69,134)" stroke-width="80" stroke-linejoin="round" d="M 21575,378 L 21575,6898 21575,378 Z"/>
 <path fill="none" stroke="rgb(0,69,134)" stroke-width="80" stroke-linejoin="round" d="M 21717,378 L 21717,5154 21717,378 Z"/>
 <path fill="none" stroke="rgb(0,69,134)" stroke-width="80" stroke-linejoin="round" d="M 21859,378 L 21859,7061 21859,378 Z"/>
 <path fill="none" stroke="rgb(0,69,134)" stroke-width="80" stroke-linejoin="round" d="M 22000,378 L 22001,6845 22002,378"/>
 <path fill="none" stroke="rgb(0,69,134)" stroke-width="80" stroke-linejoin="round" d="M 22141,378 L 22143,5274 22144,378"/>
 <path fill="none" stroke="rgb(0,69,134)" stroke-width="80" stroke-linejoin="round" d="M 22311,378 L 22356,3942 22427,7154 22497,3515 22568,6808 22602,378"/>
 <path fill="none" stroke="rgb(0,69,134)" stroke-width="80" stroke-linejoin="round" d="M 22676,378 L 22710,6954 22781,6929 22852,6929 22923,7020 22994,7020 23065,6859 23136,6859 23207,7104 23278,7104 23349,7023 23420,7023 23491,7044 23562,7044 23633,7053 23704,7053 23775,7012 23846,7012 23917,7151"/>
 <text class="TextShape"><tspan class="TextParagraph" font-family="Liberation Sans, sans-serif" font-size="353px" font-weight="400"><tspan class="TextPosition" x="2087" y="7764"><tspan fill="rgb(0,0,0)" stroke="none">0.00</tspan></tspan></tspan></text>
 <text class="TextShape"><tspan class="TextParagraph" font-family="Liberation Sans, sans-serif" font-size="353px" font-weight="400"><tspan class="TextPosition" x="4237" y="7764"><tspan fill="rgb(0,0,0)" stroke="none">0.50</tspan></tspan></tspan></text>
 <text class="TextShape"><tspan class="TextParagraph" font-family="Liberation Sans, sans-serif" font-size="353px" font-weight="400"><tspan class="TextPosition" x="6388" y="7764"><tspan fill="rgb(0,0,0)" stroke="none">1.00</tspan></tspan></tspan></text>
 <text class="TextShape"><tspan class="TextParagraph" font-family="Liberation Sans, sans-serif" font-size="353px" font-weight="400"><tspan class="TextPosition" x="8539" y="7764"><tspan fill="rgb(0,0,0)" stroke="none">1.50</tspan></tspan></tspan></text>
 <text class="TextShape"><tspan class="TextParagraph" font-family="Liberation Sans, sans-serif" font-size="353px" font-weight="400"><tspan class="TextPosition" x="10690" y="7764"><tspan fill="rgb(0,0,0)" stroke="none">2.00</tspan></tspan></tspan></text>
 <text class="TextShape"><tspan class="TextParagraph" font-family="Liberation Sans, sans-serif" font-size="353px" font-weight="400"><tspan class="TextPosition" x="12841" y="7764"><tspan fill="rgb(0,0,0)" stroke="none">2.50</tspan></tspan></tspan></text>
 <text class="TextShape"><tspan class="TextParagraph" font-family="Liberation Sans, sans-serif" font-size="353px" font-weight="400"><tspan class="TextPosition" x="14992" y="7764"><tspan fill="rgb(0,0,0)" stroke="none">3.00</tspan></tspan></tspan></text>
 <text class="TextShape"><tspan class="TextParagraph" font-family="Liberation Sans, sans-serif" font-size="353px" font-weight="400"><tspan class="TextPosition" x="17143" y="7764"><tspan fill="rgb(0,0,0)" stroke="none">3.50</tspan></tspan></tspan></text>
 <text class="TextShape"><tspan class="TextParagraph" font-family="Liberation Sans, sans-serif" font-size="353px" font-weight="400"><tspan class="TextPosition" x="19294" y="7764"><tspan fill="rgb(0,0,0)" stroke="none">4.00</tspan></tspan></tspan></text>
 <text class="TextShape"><tspan class="TextParagraph" font-family="Liberation Sans, sans-serif" font-size="353px" font-weight="400"><tspan class="TextPosition" x="21445" y="7764"><tspan fill="rgb(0,0,0)" stroke="none">4.50</tspan></tspan></tspan></text>
 <text class="TextShape"><tspan class="TextParagraph" font-family="Liberation Sans, sans-serif" font-size="353px" font-weight="400"><tspan class="TextPosition" x="23596" y="7764"><tspan fill="rgb(0,0,0)" stroke="none">5.00</tspan></tspan></tspan></text>
 <text class="TextShape"><tspan class="TextParagraph" font-family="Liberation Sans, sans-serif" font-size="353px" font-weight="400"><tspan class="TextPosition" x="1507" y="7317"><tspan fill="rgb(0,0,0)" stroke="none">0.00</tspan></tspan></tspan></text>
 <text class="TextShape"><tspan class="TextParagraph" font-family="Liberation Sans, sans-serif" font-size="353px" font-weight="400"><tspan class="TextPosition" x="1507" y="6635"><tspan fill="rgb(0,0,0)" stroke="none">0.10</tspan></tspan></tspan></text>
 <text class="TextShape"><tspan class="TextParagraph" font-family="Liberation Sans, sans-serif" font-size="353px" font-weight="400"><tspan class="TextPosition" x="1507" y="5953"><tspan fill="rgb(0,0,0)" stroke="none">0.20</tspan></tspan></tspan></text>
 <text class="TextShape"><tspan class="TextParagraph" font-family="Liberation Sans, sans-serif" font-size="353px" font-weight="400"><tspan class="TextPosition" x="1507" y="5271"><tspan fill="rgb(0,0,0)" stroke="none">0.30</tspan></tspan></tspan></text>
 <text class="TextShape"><tspan class="TextParagraph" font-family="Liberation Sans, sans-serif" font-size="353px" font-weight="400"><tspan class="TextPosition" x="1507" y="4589"><tspan fill="rgb(0,0,0)" stroke="none">0.40</tspan></tspan></tspan></text>
 <text class="TextShape"><tspan class="TextParagraph" font-family="Liberation Sans, sans-serif" font-size="353px" font-weight="400"><tspan class="TextPosition" x="1507" y="3907"><tspan fill="rgb(0,0,0)" stroke="none">0.50</tspan></tspan></tspan></text>
 <text class="TextShape"><tspan class="TextParagraph" font-family="Liberation Sans, sans-serif" font-size="353px" font-weight="400"><tspan class="TextPosition" x="1507" y="3225"><tspan fill="rgb(0,0,0)" stroke="none">0.60</tspan></tspan></tspan></text>
 <text class="TextShape"><tspan class="TextParagraph" font-family="Liberation Sans, sans-serif" font-size="353px" font-weight="400"><tspan class="TextPosition" x="1507" y="2543"><tspan fill="rgb(0,0,0)" stroke="none">0.70</tspan></tspan></tspan></text>
 <text class="TextShape"><tspan class="TextParagraph" font-family="Liberation Sans, sans-serif" font-size="353px" font-weight="400"><tspan class="TextPosition" x="1507" y="1861"><tspan fill="rgb(0,0,0)" stroke="none">0.80</tspan></tspan></tspan></text>
 <text class="TextShape"><tspan class="TextParagraph" font-family="Liberation Sans, sans-serif" font-size="353px" font-weight="400"><tspan class="TextPosition" x="1507" y="1179"><tspan fill="rgb(0,0,0)" stroke="none">0.90</tspan></tspan></tspan></text>
 <text class="TextShape"><tspan class="TextParagraph" font-family="Liberation Sans, sans-serif" font-size="353px" font-weight="400"><tspan class="TextPosition" x="1507" y="498"><tspan fill="rgb(0,0,0)" stroke="none">1.00</tspan></tspan></tspan></text>
 <text class="TextShape"><tspan class="TextParagraph" font-family="Liberation Sans, sans-serif" font-size="318px" font-weight="400"><tspan class="TextPosition" x="12313" y="8411"><tspan fill="rgb(0,0,0)" stroke="none">Time (s)</tspan></tspan></tspan></text>
 <text class="TextShape" transform="translate(837,6472) rotate(-90) translate(-837,-6472)"><tspan class="TextParagraph" font-family="Liberation Sans, sans-serif" font-size="318px" font-weight="400"><tspan class="TextPosition" x="837" y="6472"><tspan fill="rgb(0,0,0)" stroke="none">Seperation With Last Detected (m)</tspan></tspan></tspan></text>
</svg>